<svg width="99" height="135" viewBox="0 0 99 135" fill="none" xmlns="http://www.w3.org/2000/svg">
<g clip-path="url(#clip0_704_304)">
<path d="M16.9744 27.613C18.7405 17.9135 28.342 12.3488 33.1497 9.54545C50.8669 -0.728823 80.204 -1.82213 91.5015 14.9419C98.3977 25.1741 95.5383 37.5789 94.9916 39.9338C92.3425 51.4135 83.7362 62.0522 71.7378 65.6965C61.6178 68.7662 40.8029 65.3882 36.1633 63.7482C20.7449 58.2817 14.1711 42.9614 16.9604 27.599L16.9744 27.613Z" fill="#419461"/>
<path d="M60.7907 69.0465C50.4884 69.0465 38.8826 66.944 35.4765 65.7386C19.988 60.244 11.7181 44.7695 14.9139 27.2345C16.8482 16.5818 27.1505 10.5967 32.1125 7.72323C51.4836 -3.51821 81.7458 -3.32197 93.2535 13.7644C99.7012 23.3239 98.3977 34.5653 97.0521 40.4103C94.0665 53.3477 84.3809 64.0706 72.3686 67.7149C69.2148 68.6681 65.1219 69.0465 60.8048 69.0465H60.7907ZM19.0349 27.9774C16.2315 43.4099 23.4081 56.9921 36.8782 61.7718C41.5457 63.4258 61.87 66.4955 71.1351 63.6921C81.7318 60.4683 90.296 50.9649 92.9452 39.4712C94.1366 34.285 95.314 24.3751 89.7493 16.1193C81.2972 3.57427 55.7447 -1.13536 34.201 11.3676C29.4493 14.1149 20.6187 19.245 19.0349 27.9774Z" fill="white"/>
<path d="M31.3556 30.3882C30.5006 29.6313 24.6416 24.5993 17.3669 26.043C7.97567 27.9073 5.10223 38.8263 4.61165 40.9008C4.23319 42.5127 2.17273 51.3853 8.10182 58.2675C12.9376 63.8883 21.1514 65.9627 28.9167 63.5238" fill="#419461"/>
<path d="M22.3849 66.6498C16.2176 66.6498 10.4006 64.1828 6.50397 59.6414C2.29894 54.7496 0.855216 47.7412 2.56526 40.4245C3.3502 37.0885 6.68618 26.0152 16.9605 23.9828C24.7958 22.427 31.0193 27.2908 32.7433 28.8186C33.6124 29.5895 33.6965 30.9211 32.9255 31.7901C32.1546 32.6592 30.823 32.7433 29.954 31.9724C28.9868 31.1173 23.8707 26.8983 17.7734 28.1178C9.76987 29.7016 7.10669 39.4573 6.65815 41.3916C5.83116 44.9238 5.13032 51.6238 9.68577 56.9082C13.9889 61.9121 21.2776 63.7203 28.272 61.5337C29.3793 61.1833 30.5567 61.8 30.9071 62.9073C31.2575 64.0147 30.6408 65.1921 29.5335 65.5425C27.1506 66.2854 24.7398 66.6498 22.3849 66.6498Z" fill="white"/>
<path d="M21.109 50.7407C20.8708 55.955 20.3521 62.8792 19.1887 70.9949C17.4647 82.9933 15.8668 93.5619 11.5496 94.3188C10.4002 94.515 8.81635 94.0805 6.64375 91.7537C5.24208 93.9123 1.66781 100.052 2.13036 108.448C2.27053 110.985 2.9153 119.885 10.4002 126.529C15.4042 130.973 23.0854 133.832 29.9116 132.556C49.0724 128.982 63.0191 92.5387 55.7865 63.9024" fill="#419461"/>
<path d="M26.5618 134.981C20.4786 134.981 13.9187 132.472 9.0269 128.127C3.60242 123.305 0.504714 116.563 0.0561777 108.588C-0.406375 100.178 2.88756 93.73 4.90597 90.6323L6.36371 88.3756L8.19991 90.338C10.0361 92.3003 10.9472 92.3003 11.1995 92.2583C14.101 91.7397 15.9932 78.5779 17.1286 70.7005C18.0817 64.0566 18.7125 57.3145 19.0208 50.6426C19.0769 49.4792 20.0441 48.5961 21.2215 48.6382C22.3849 48.6942 23.2819 49.6754 23.2259 50.8388C22.9175 57.6369 22.2587 64.5191 21.2915 71.3032C19.147 86.2171 17.5491 95.412 11.9424 96.4072C10.4005 96.6736 8.81664 96.225 7.20472 95.0616C5.63484 98.0892 3.95283 102.715 4.27522 108.364C4.65367 115.19 7.2748 120.937 11.8443 124.987C16.7641 129.361 23.8846 131.575 29.5614 130.51C35.2943 129.445 40.7748 125.029 45.4424 117.741C54.6514 103.36 58.0855 82.839 53.7824 65.8227C53.502 64.7014 54.1608 64.6593 55.3102 64.6733C56.4596 64.6873 57.5809 65.0658 57.8612 66.2011C62.4868 84.535 58.9265 104.495 48.9886 120.011C43.6903 128.295 37.2286 133.355 30.3323 134.645C29.1129 134.869 27.8654 134.981 26.5899 134.981H26.5618Z" fill="white"/>
<path d="M54.4412 37.2704C57.4128 38.2516 60.5385 38.7842 63.6642 38.8964C64.7575 38.9384 65.8228 37.9012 65.7668 36.7939C65.7107 35.6165 64.8416 34.7334 63.6642 34.6914C62.9494 34.6633 62.2486 34.6213 61.5477 34.5512C61.3375 34.5232 61.1132 34.5091 60.9029 34.4811C60.4544 34.425 61.3094 34.5372 60.8188 34.4811C60.4684 34.425 60.118 34.369 59.7676 34.3129C58.3519 34.0606 56.9502 33.6962 55.5766 33.2336C54.5253 32.8832 53.2358 33.6401 52.9835 34.7054C52.7172 35.8688 53.3339 36.92 54.4552 37.2985L54.4412 37.2704Z" fill="white"/>
<path d="M88.7541 21.6557C94.173 21.6557 98.5658 17.2628 98.5658 11.844C98.5658 6.42509 94.173 2.03223 88.7541 2.03223C83.3352 2.03223 78.9424 6.42509 78.9424 11.844C78.9424 17.2628 83.3352 21.6557 88.7541 21.6557Z" fill="white"/>
</g>
<defs>
<clipPath id="clip0_704_304">
<rect width="98.5658" height="134.981" fill="white"/>
</clipPath>
</defs>
</svg>
