<svg width="28" height="28" viewBox="0 0 28 28" fill="none" xmlns="http://www.w3.org/2000/svg">
<mask id="mask0_188_1083" style="mask-type:alpha" maskUnits="userSpaceOnUse" x="0" y="0" width="28" height="28">
<rect width="28" height="28" fill="#D9D9D9"/>
</mask>
<g mask="url(#mask0_188_1083)">
<path d="M8.1665 24.5C7.52484 24.5 6.97553 24.2715 6.51859 23.8146C6.06164 23.3576 5.83317 22.8083 5.83317 22.1667V7H4.6665V4.66667H10.4998V3.5H17.4998V4.66667H23.3332V7H22.1665V22.1667C22.1665 22.8083 21.938 23.3576 21.4811 23.8146C21.0241 24.2715 20.4748 24.5 19.8332 24.5H8.1665ZM19.8332 7H8.1665V22.1667H19.8332V7ZM10.4998 19.8333H12.8332V9.33333H10.4998V19.8333ZM15.1665 19.8333H17.4998V9.33333H15.1665V19.8333Z" fill="#1C1B1F"/>
</g>
</svg>
