<svg width="56" height="56" viewBox="0 0 56 56" fill="none" xmlns="http://www.w3.org/2000/svg">
<g clip-path="url(#clip0_675_307)">
<circle cx="28" cy="28" r="28" fill="black"/>
<path d="M35.376 28.3429C35.3452 24.9267 38.168 23.2865 38.2927 23.2105C36.7064 20.8893 34.2332 20.5658 33.356 20.527C31.2502 20.3151 29.2463 21.7676 28.1813 21.7676C27.1163 21.7676 25.4653 20.5626 23.7237 20.5965C21.4253 20.6273 19.3146 21.931 18.1314 23.9772C15.7489 28.1084 17.5196 34.2323 19.8455 37.5822C20.9786 39.2224 22.3301 41.0648 24.1057 40.9985C25.8198 40.9322 26.4672 39.8937 28.5358 39.8937C30.6043 39.8937 31.1854 40.9985 32.9966 40.971C34.837 40.9322 36.004 39.292 37.1273 37.6518C38.4286 35.748 38.9692 33.9056 39 33.8085C38.9595 33.794 35.41 32.432 35.3743 28.3429H35.376Z" fill="white"/>
<path d="M31.972 18.3091C32.9173 17.1687 33.5534 15.5803 33.3786 14C32.0206 14.0518 30.3745 14.9074 29.4017 16.0429C28.526 17.0571 27.7572 18.6779 27.966 20.2243C29.4794 20.3391 31.0316 19.4527 31.972 18.3091Z" fill="white"/>
</g>
<defs>
<clipPath id="clip0_675_307">
<rect width="56" height="56" fill="white"/>
</clipPath>
</defs>
</svg>
