<svg width="26" height="26" viewBox="0 0 26 26" fill="none" xmlns="http://www.w3.org/2000/svg">
<mask id="mask0_215_569" style="mask-type:alpha" maskUnits="userSpaceOnUse" x="0" y="0" width="26" height="26">
<rect width="26" height="26" fill="#D9D9D9"/>
</mask>
<g mask="url(#mask0_215_569)">
<path d="M6.49967 23.8335C5.90384 23.8335 5.39377 23.6213 4.96947 23.197C4.54516 22.7727 4.33301 22.2627 4.33301 21.6668V10.8335C4.33301 10.2377 4.54516 9.72759 4.96947 9.30329C5.39377 8.87898 5.90384 8.66683 6.49967 8.66683H7.58301V6.50016C7.58301 5.00155 8.11113 3.72412 9.16738 2.66787C10.2236 1.61162 11.5011 1.0835 12.9997 1.0835C14.4983 1.0835 15.7757 1.61162 16.832 2.66787C17.8882 3.72412 18.4163 5.00155 18.4163 6.50016V8.66683H19.4997C20.0955 8.66683 20.6056 8.87898 21.0299 9.30329C21.4542 9.72759 21.6663 10.2377 21.6663 10.8335V21.6668C21.6663 22.2627 21.4542 22.7727 21.0299 23.197C20.6056 23.6213 20.0955 23.8335 19.4997 23.8335H6.49967ZM6.49967 21.6668H19.4997V10.8335H6.49967V21.6668ZM12.9997 18.4168C13.5955 18.4168 14.1056 18.2047 14.5299 17.7804C14.9542 17.3561 15.1663 16.846 15.1663 16.2502C15.1663 15.6543 14.9542 15.1443 14.5299 14.72C14.1056 14.2956 13.5955 14.0835 12.9997 14.0835C12.4038 14.0835 11.8938 14.2956 11.4695 14.72C11.0452 15.1443 10.833 15.6543 10.833 16.2502C10.833 16.846 11.0452 17.3561 11.4695 17.7804C11.8938 18.2047 12.4038 18.4168 12.9997 18.4168ZM9.74967 8.66683H16.2497V6.50016C16.2497 5.59739 15.9337 4.83002 15.3018 4.19808C14.6698 3.56613 13.9025 3.25016 12.9997 3.25016C12.0969 3.25016 11.3295 3.56613 10.6976 4.19808C10.0656 4.83002 9.74967 5.59739 9.74967 6.50016V8.66683Z" fill="#1C1B1F"/>
</g>
</svg>
