<svg width="16" height="16" viewBox="0 0 16 16" fill="none" xmlns="http://www.w3.org/2000/svg">
<mask id="mask0_194_1322" style="mask-type:alpha" maskUnits="userSpaceOnUse" x="0" y="0" width="16" height="16">
<rect width="16" height="16" fill="#D9D9D9"/>
</mask>
<g mask="url(#mask0_194_1322)">
<path d="M3.99984 14.6667C3.63317 14.6667 3.31928 14.5362 3.05817 14.2751C2.79706 14.014 2.6665 13.7001 2.6665 13.3334V6.66675C2.6665 6.30008 2.79706 5.98619 3.05817 5.72508C3.31928 5.46397 3.63317 5.33342 3.99984 5.33342H4.6665V4.00008C4.6665 3.07786 4.9915 2.29175 5.6415 1.64175C6.2915 0.991748 7.07762 0.666748 7.99984 0.666748C8.92206 0.666748 9.70817 0.991748 10.3582 1.64175C11.0082 2.29175 11.3332 3.07786 11.3332 4.00008V5.33342H11.9998C12.3665 5.33342 12.6804 5.46397 12.9415 5.72508C13.2026 5.98619 13.3332 6.30008 13.3332 6.66675V13.3334C13.3332 13.7001 13.2026 14.014 12.9415 14.2751C12.6804 14.5362 12.3665 14.6667 11.9998 14.6667H3.99984ZM3.99984 13.3334H11.9998V6.66675H3.99984V13.3334ZM7.99984 11.3334C8.3665 11.3334 8.68039 11.2029 8.9415 10.9417C9.20262 10.6806 9.33317 10.3667 9.33317 10.0001C9.33317 9.63342 9.20262 9.31953 8.9415 9.05842C8.68039 8.7973 8.3665 8.66675 7.99984 8.66675C7.63317 8.66675 7.31928 8.7973 7.05817 9.05842C6.79706 9.31953 6.6665 9.63342 6.6665 10.0001C6.6665 10.3667 6.79706 10.6806 7.05817 10.9417C7.31928 11.2029 7.63317 11.3334 7.99984 11.3334ZM5.99984 5.33342H9.99984V4.00008C9.99984 3.44453 9.80539 2.9723 9.4165 2.58341C9.02762 2.19453 8.55539 2.00008 7.99984 2.00008C7.44428 2.00008 6.97206 2.19453 6.58317 2.58341C6.19428 2.9723 5.99984 3.44453 5.99984 4.00008V5.33342Z" fill="#777777"/>
</g>
</svg>
