<svg width="26" height="26" viewBox="0 0 26 26" fill="none" xmlns="http://www.w3.org/2000/svg">
<mask id="mask0_343_253" style="mask-type:alpha" maskUnits="userSpaceOnUse" x="0" y="0" width="26" height="26">
<rect width="26" height="26" fill="#D9D9D9"/>
</mask>
<g mask="url(#mask0_343_253)">
<path d="M12.9997 21.6667C12.4038 21.6667 11.8938 21.4546 11.4695 21.0303C11.0452 20.6059 10.833 20.0959 10.833 19.5C10.833 18.9042 11.0452 18.3941 11.4695 17.9698C11.8938 17.5455 12.4038 17.3334 12.9997 17.3334C13.5955 17.3334 14.1056 17.5455 14.5299 17.9698C14.9542 18.3941 15.1663 18.9042 15.1663 19.5C15.1663 20.0959 14.9542 20.6059 14.5299 21.0303C14.1056 21.4546 13.5955 21.6667 12.9997 21.6667ZM12.9997 15.1667C12.4038 15.1667 11.8938 14.9546 11.4695 14.5302C11.0452 14.1059 10.833 13.5959 10.833 13C10.833 12.4042 11.0452 11.8941 11.4695 11.4698C11.8938 11.0455 12.4038 10.8334 12.9997 10.8334C13.5955 10.8334 14.1056 11.0455 14.5299 11.4698C14.9542 11.8941 15.1663 12.4042 15.1663 13C15.1663 13.5959 14.9542 14.1059 14.5299 14.5302C14.1056 14.9546 13.5955 15.1667 12.9997 15.1667ZM12.9997 8.66671C12.4038 8.66671 11.8938 8.45455 11.4695 8.03025C11.0452 7.60594 10.833 7.09587 10.833 6.50004C10.833 5.90421 11.0452 5.39414 11.4695 4.96983C11.8938 4.54553 12.4038 4.33337 12.9997 4.33337C13.5955 4.33337 14.1056 4.54553 14.5299 4.96983C14.9542 5.39414 15.1663 5.90421 15.1663 6.50004C15.1663 7.09587 14.9542 7.60594 14.5299 8.03025C14.1056 8.45455 13.5955 8.66671 12.9997 8.66671Z" fill="#1C1B1F"/>
</g>
</svg>
