<svg width="26" height="26" viewBox="0 0 26 26" fill="none" xmlns="http://www.w3.org/2000/svg">
<mask id="mask0_215_570" style="mask-type:alpha" maskUnits="userSpaceOnUse" x="0" y="0" width="26" height="26">
<rect width="26" height="26" fill="#D9D9D9"/>
</mask>
<g mask="url(#mask0_215_570)">
<path d="M6.49967 21.6666H19.4997V10.8333H6.49967V21.6666ZM12.9997 18.4166C13.5955 18.4166 14.1056 18.2044 14.5299 17.7801C14.9542 17.3558 15.1663 16.8458 15.1663 16.2499C15.1663 15.6541 14.9542 15.144 14.5299 14.7197C14.1056 14.2954 13.5955 14.0833 12.9997 14.0833C12.4038 14.0833 11.8938 14.2954 11.4695 14.7197C11.0452 15.144 10.833 15.6541 10.833 16.2499C10.833 16.8458 11.0452 17.3558 11.4695 17.7801C11.8938 18.2044 12.4038 18.4166 12.9997 18.4166ZM6.49967 23.8333C5.90384 23.8333 5.39377 23.6211 4.96947 23.1968C4.54516 22.7725 4.33301 22.2624 4.33301 21.6666V10.8333C4.33301 10.2374 4.54516 9.72735 4.96947 9.30304C5.39377 8.87874 5.90384 8.66659 6.49967 8.66659H14.083V6.49992C14.083 5.00131 14.6111 3.72388 15.6674 2.66763C16.7236 1.61138 18.0011 1.08325 19.4997 1.08325C20.9983 1.08325 22.2757 1.61138 23.332 2.66763C24.3882 3.72388 24.9163 5.00131 24.9163 6.49992H22.7497C22.7497 5.59714 22.4337 4.82978 21.8018 4.19784C21.1698 3.56589 20.4025 3.24992 19.4997 3.24992C18.5969 3.24992 17.8295 3.56589 17.1976 4.19784C16.5656 4.82978 16.2497 5.59714 16.2497 6.49992V8.66659H19.4997C20.0955 8.66659 20.6056 8.87874 21.0299 9.30304C21.4542 9.72735 21.6663 10.2374 21.6663 10.8333V21.6666C21.6663 22.2624 21.4542 22.7725 21.0299 23.1968C20.6056 23.6211 20.0955 23.8333 19.4997 23.8333H6.49967Z" fill="#1C1B1F"/>
</g>
</svg>
